<?xml version="1.0" encoding="UTF-8"?>
<!DOCTYPE svg PUBLIC "-//W3C//DTD SVG 1.1//EN" "http://www.w3.org/Graphics/SVG/1.1/DTD/svg11.dtd">
<svg xmlns="http://www.w3.org/2000/svg" version="1.1" width="456px" height="456px" style="shape-rendering:geometricPrecision; text-rendering:geometricPrecision; image-rendering:optimizeQuality; fill-rule:evenodd; clip-rule:evenodd" xmlns:xlink="http://www.w3.org/1999/xlink">
<g><path style="opacity:0.905" fill="#fefffe" d="M 32.5,79.5 C 37.5,79.5 42.5,79.5 47.5,79.5C 47.5,155.167 47.5,230.833 47.5,306.5C 42.5,306.5 37.5,306.5 32.5,306.5C 32.5,230.833 32.5,155.167 32.5,79.5 Z"/></g>
<g><path style="opacity:0.772" fill="#fefffe" d="M 52.5,79.5 C 55.4475,79.2229 58.2809,79.5562 61,80.5C 61.6667,155.5 61.6667,230.5 61,305.5C 58.2809,306.444 55.4475,306.777 52.5,306.5C 52.5,230.833 52.5,155.167 52.5,79.5 Z"/></g>
<g><path style="opacity:0.833" fill="#fefffe" d="M 73.5,79.5 C 76.1667,79.5 78.8333,79.5 81.5,79.5C 81.5,155.167 81.5,230.833 81.5,306.5C 78.8333,306.5 76.1667,306.5 73.5,306.5C 73.5,230.833 73.5,155.167 73.5,79.5 Z"/></g>
<g><path style="opacity:0.844" fill="#fefffe" d="M 107.5,79.5 C 110.167,79.5 112.833,79.5 115.5,79.5C 115.5,155.167 115.5,230.833 115.5,306.5C 112.833,306.5 110.167,306.5 107.5,306.5C 107.5,230.833 107.5,155.167 107.5,79.5 Z"/></g>
<g><path style="opacity:0.927" fill="#fefefe" d="M 134.5,79.5 C 139.833,79.5 145.167,79.5 150.5,79.5C 150.167,113.507 150.5,147.507 151.5,181.5C 156.321,174.65 161.821,168.316 168,162.5C 168.5,134.835 168.667,107.169 168.5,79.5C 171.5,79.5 174.5,79.5 177.5,79.5C 177.333,104.502 177.5,129.502 178,154.5C 179.512,153.743 180.846,152.743 182,151.5C 182.5,127.502 182.667,103.502 182.5,79.5C 185.5,79.5 188.5,79.5 191.5,79.5C 191.167,101.51 191.5,123.51 192.5,145.5C 193.748,144.96 194.915,144.293 196,143.5C 196.5,122.169 196.667,100.836 196.5,79.5C 199.448,79.2229 202.281,79.5562 205,80.5C 205.167,100.175 205.667,119.842 206.5,139.5C 211.996,137.723 217.496,136.056 223,134.5C 223.5,116.17 223.667,97.8364 223.5,79.5C 228.833,79.5 234.167,79.5 239.5,79.5C 239.5,97.5 239.5,115.5 239.5,133.5C 245.5,133.5 251.5,133.5 257.5,133.5C 257.333,115.83 257.5,98.1635 258,80.5C 263.072,79.5286 268.238,79.1953 273.5,79.5C 273.333,98.5029 273.5,117.503 274,136.5C 277.601,138.034 281.268,139.367 285,140.5C 285.5,120.169 285.667,99.8361 285.5,79.5C 290.5,79.5 295.5,79.5 300.5,79.5C 300.167,102.51 300.5,125.51 301.5,148.5C 305.258,150.461 308.758,152.795 312,155.5C 312.5,130.169 312.667,104.836 312.5,79.5C 317.833,79.5 323.167,79.5 328.5,79.5C 328.333,110.168 328.5,140.835 329,171.5C 330.713,172.878 332.047,174.545 333,176.5C 333.5,144.168 333.667,111.835 333.5,79.5C 338.5,79.5 343.5,79.5 348.5,79.5C 348.333,120.835 348.5,162.168 349,203.5C 358.999,231.179 358.999,258.845 349,286.5C 348.5,293.158 348.334,299.825 348.5,306.5C 335.01,305.95 334.343,308.117 346.5,313C 368.667,335.167 390.833,357.333 413,379.5C 419.082,388.536 420.082,398.202 416,408.5C 408.873,418.101 399.373,421.601 387.5,419C 384.048,418.108 381.048,416.442 378.5,414C 356.333,391.833 334.167,369.667 312,347.5C 310.217,344.657 308.717,341.657 307.5,338.5C 274.44,359.34 239.44,363.173 202.5,350C 180.805,341.135 163.471,326.968 150.5,307.5C 145.282,306.811 140.116,306.144 135,305.5C 134.78,285.463 133.947,265.463 132.5,245.5C 133.497,232.02 134.163,218.52 134.5,205C 134.167,198.833 133.833,192.667 133.5,186.5C 130.971,184.937 129.971,182.604 130.5,179.5C 131.833,179.5 133.167,179.5 134.5,179.5C 134.5,146.167 134.5,112.833 134.5,79.5 Z M 234.5,162.5 C 278.938,160.954 308.772,180.954 324,222.5C 332.717,263.547 319.55,295.38 284.5,318C 252.158,334.063 221.491,331.396 192.5,310C 165.277,286.321 156.111,256.821 165,221.5C 176.532,188.148 199.698,168.481 234.5,162.5 Z M 262.5,189.5 C 271.528,189.46 280.528,189.96 289.5,191C 292.244,191.803 294.911,192.803 297.5,194C 279.484,201.263 261.484,201.263 243.5,194C 249.68,191.348 256.014,189.848 262.5,189.5 Z M 242.5,201.5 C 260.997,206.808 279.497,206.808 298,201.5C 298.667,204.167 298.667,206.833 298,209.5C 296.829,210.893 295.329,211.727 293.5,212C 280.534,213.493 267.534,213.827 254.5,213C 250.686,212.766 247.019,211.932 243.5,210.5C 242.516,207.572 242.183,204.572 242.5,201.5 Z M 242.5,216.5 C 245.628,218.154 248.961,219.321 252.5,220C 264.402,221.529 276.402,221.529 288.5,220C 291.903,219.422 295.07,218.255 298,216.5C 298.667,231.167 298.667,245.833 298,260.5C 290.465,263.434 282.631,264.6 274.5,264C 286.283,260.605 291.783,252.772 291,240.5C 287.996,226.9 279.496,221.066 265.5,223C 257.461,224.704 252.294,229.537 250,237.5C 247.876,236.773 245.709,236.106 243.5,235.5C 242.504,229.202 242.17,222.868 242.5,216.5 Z M 266.5,228.5 C 274.828,227.992 280.828,231.492 284.5,239C 283.355,240.859 281.688,241.693 279.5,241.5C 275.465,239.379 271.132,238.045 266.5,237.5C 263.395,237.939 260.395,238.439 257.5,239C 256.72,237.927 256.887,236.76 258,235.5C 260.441,232.546 263.275,230.213 266.5,228.5 Z M 208.5,240.5 C 218.506,240.334 228.506,240.5 238.5,241C 246.232,241.908 253.232,244.575 259.5,249C 254.211,253.098 248.211,255.431 241.5,256C 230.5,256.667 219.5,256.667 208.5,256C 212.683,255.147 215.683,252.813 217.5,249C 217.01,247.018 216.01,245.351 214.5,244C 210.584,242.898 206.584,242.231 202.5,242C 204.708,241.809 206.708,241.309 208.5,240.5 Z M 196.5,244.5 C 193.833,247.5 193.833,250.5 196.5,253.5C 184.656,250.182 184.656,247.182 196.5,244.5 Z M 283.5,247.5 C 280.347,255.744 274.347,258.744 265.5,256.5C 265.793,252.563 265.46,248.73 264.5,245C 270.67,246.543 277.003,247.376 283.5,247.5 Z M 258.5,257.5 C 259.659,268.993 259.826,280.659 259,292.5C 258.333,293.167 257.667,293.833 257,294.5C 256.667,285.5 256.333,276.5 256,267.5C 255.333,266.167 254.333,265.167 253,264.5C 249.653,266.06 246.153,267.227 242.5,268C 229.833,268.667 217.167,268.667 204.5,268C 200.847,267.227 197.347,266.06 194,264.5C 193.586,264.957 193.086,265.291 192.5,265.5C 191.833,275.167 191.167,284.833 190.5,294.5C 189.522,294.023 188.689,293.357 188,292.5C 187.5,281.172 187.333,269.838 187.5,258.5C 205.121,264.381 223.121,265.881 241.5,263C 247.497,261.833 253.164,260 258.5,257.5 Z M 297.5,267.5 C 298.811,271.683 298.811,276.016 297.5,280.5C 287.09,283.79 276.423,285.123 265.5,284.5C 265.5,280.167 265.5,275.833 265.5,271.5C 274.541,271.717 283.541,271.217 292.5,270C 294.491,269.626 296.158,268.793 297.5,267.5 Z M 197.5,272.5 C 214.505,277.724 231.505,277.724 248.5,272.5C 249.833,280.833 249.833,289.167 248.5,297.5C 232.224,301.287 215.891,301.454 199.5,298C 197.548,289.77 196.882,281.27 197.5,272.5 Z M 223.5,285.5 C 227.219,285.002 230.553,285.836 233.5,288C 229.5,291.333 225.5,291.333 221.5,288C 222.381,287.292 223.047,286.458 223.5,285.5 Z"/></g>
<g><path style="opacity:0.881" fill="#fefffe" d="M 367.5,79.5 C 375.167,79.5 382.833,79.5 390.5,79.5C 390.667,154.834 390.5,230.167 390,305.5C 382.587,306.481 375.087,306.814 367.5,306.5C 367.5,230.833 367.5,155.167 367.5,79.5 Z"/></g>
<g><path style="opacity:0.872" fill="#fefffe" d="M 395.5,79.5 C 398.167,79.5 400.833,79.5 403.5,79.5C 403.5,155.167 403.5,230.833 403.5,306.5C 400.833,306.5 398.167,306.5 395.5,306.5C 395.5,230.833 395.5,155.167 395.5,79.5 Z"/></g>
<g><path style="opacity:0.91" fill="#fefffe" d="M 408.5,79.5 C 413.5,79.5 418.5,79.5 423.5,79.5C 423.5,155.167 423.5,230.833 423.5,306.5C 418.5,306.5 413.5,306.5 408.5,306.5C 408.5,230.833 408.5,155.167 408.5,79.5 Z"/></g>
<g><path style="opacity:0.597" fill="#fefffe" d="M 263.5,182.5 C 276.97,181.975 289.97,184.141 302.5,189C 303.701,189.903 304.535,191.069 305,192.5C 305.667,222.167 305.667,251.833 305,281.5C 302.334,285.09 298.834,287.59 294.5,289C 284.879,290.286 275.212,290.786 265.5,290.5C 264.989,296.188 261.989,300.021 256.5,302C 233.391,309.535 210.391,309.202 187.5,301C 185.667,299.167 183.833,297.333 182,295.5C 180.862,287.265 180.362,278.931 180.5,270.5C 180.362,262.069 180.862,253.735 182,245.5C 184.687,241.806 188.187,239.306 192.5,238C 206.649,234.223 220.982,233.057 235.5,234.5C 235.033,219.736 235.533,205.07 237,190.5C 239.772,188.239 242.938,186.739 246.5,186C 252.265,184.614 257.931,183.448 263.5,182.5 Z M 262.5,189.5 C 256.014,189.848 249.68,191.348 243.5,194C 261.484,201.263 279.484,201.263 297.5,194C 294.911,192.803 292.244,191.803 289.5,191C 280.528,189.96 271.528,189.46 262.5,189.5 Z M 242.5,201.5 C 242.183,204.572 242.516,207.572 243.5,210.5C 247.019,211.932 250.686,212.766 254.5,213C 267.534,213.827 280.534,213.493 293.5,212C 295.329,211.727 296.829,210.893 298,209.5C 298.667,206.833 298.667,204.167 298,201.5C 279.497,206.808 260.997,206.808 242.5,201.5 Z M 242.5,216.5 C 242.17,222.868 242.504,229.202 243.5,235.5C 245.709,236.106 247.876,236.773 250,237.5C 252.294,229.537 257.461,224.704 265.5,223C 279.496,221.066 287.996,226.9 291,240.5C 291.783,252.772 286.283,260.605 274.5,264C 282.631,264.6 290.465,263.434 298,260.5C 298.667,245.833 298.667,231.167 298,216.5C 295.07,218.255 291.903,219.422 288.5,220C 276.402,221.529 264.402,221.529 252.5,220C 248.961,219.321 245.628,218.154 242.5,216.5 Z M 266.5,228.5 C 263.275,230.213 260.441,232.546 258,235.5C 256.887,236.76 256.72,237.927 257.5,239C 260.395,238.439 263.395,237.939 266.5,237.5C 271.132,238.045 275.465,239.379 279.5,241.5C 281.688,241.693 283.355,240.859 284.5,239C 280.828,231.492 274.828,227.992 266.5,228.5 Z M 208.5,240.5 C 206.708,241.309 204.708,241.809 202.5,242C 206.584,242.231 210.584,242.898 214.5,244C 216.01,245.351 217.01,247.018 217.5,249C 215.683,252.813 212.683,255.147 208.5,256C 219.5,256.667 230.5,256.667 241.5,256C 248.211,255.431 254.211,253.098 259.5,249C 253.232,244.575 246.232,241.908 238.5,241C 228.506,240.5 218.506,240.334 208.5,240.5 Z M 196.5,244.5 C 193.833,247.5 193.833,250.5 196.5,253.5C 184.656,250.182 184.656,247.182 196.5,244.5 Z M 283.5,247.5 C 277.003,247.376 270.67,246.543 264.5,245C 265.46,248.73 265.793,252.563 265.5,256.5C 274.347,258.744 280.347,255.744 283.5,247.5 Z M 258.5,257.5 C 253.164,260 247.497,261.833 241.5,263C 223.121,265.881 205.121,264.381 187.5,258.5C 187.333,269.838 187.5,281.172 188,292.5C 188.689,293.357 189.522,294.023 190.5,294.5C 191.167,284.833 191.833,275.167 192.5,265.5C 193.086,265.291 193.586,264.957 194,264.5C 197.347,266.06 200.847,267.227 204.5,268C 217.167,268.667 229.833,268.667 242.5,268C 246.153,267.227 249.653,266.06 253,264.5C 254.333,265.167 255.333,266.167 256,267.5C 256.333,276.5 256.667,285.5 257,294.5C 257.667,293.833 258.333,293.167 259,292.5C 259.826,280.659 259.659,268.993 258.5,257.5 Z M 297.5,267.5 C 296.158,268.793 294.491,269.626 292.5,270C 283.541,271.217 274.541,271.717 265.5,271.5C 265.5,275.833 265.5,280.167 265.5,284.5C 276.423,285.123 287.09,283.79 297.5,280.5C 298.811,276.016 298.811,271.683 297.5,267.5 Z M 197.5,272.5 C 196.882,281.27 197.548,289.77 199.5,298C 215.891,301.454 232.224,301.287 248.5,297.5C 249.833,289.167 249.833,280.833 248.5,272.5C 231.505,277.724 214.505,277.724 197.5,272.5 Z M 223.5,285.5 C 223.047,286.458 222.381,287.292 221.5,288C 225.5,291.333 229.5,291.333 233.5,288C 230.553,285.836 227.219,285.002 223.5,285.5 Z"/></g>
<g><path style="opacity:0.632" fill="#fefffe" d="M 205.5,279.5 C 209.634,278.943 213.301,279.943 216.5,282.5C 226.672,277.239 235.338,278.905 242.5,287.5C 237.892,295.793 230.892,298.627 221.5,296C 219.833,295.167 218.167,294.333 216.5,293.5C 213.29,296.222 209.624,297.056 205.5,296C 205.435,290.503 205.435,285.003 205.5,279.5 Z M 223.5,285.5 C 223.047,286.458 222.381,287.292 221.5,288C 225.5,291.333 229.5,291.333 233.5,288C 230.553,285.836 227.219,285.002 223.5,285.5 Z"/></g>
</svg>
